<svg xmlns="http://www.w3.org/2000/svg" id="Layer_1" data-name="Layer 1" viewBox="0 0 2000 2000"><defs><style>.cls-2{fill:#f0ede7}</style></defs><path d="M169.16 1534.18 329.25 1311l-274-25.17q-.84-2.77-1.66-5.55l217-169-256-101.46c0-1.9.07-3.81.1-5.71l256-101.43-216.1-168.11 1-6.48L329.25 703c-54.75-76.33-107.41-149.73-160.07-223.14.8-1.83 1.59-3.65 2.39-5.47l270.5 53.38-90.94-259.08 3.4-5 245.21 127.6c-5-94.8-9.68-184.49-14.39-274.17l4.84-3.44L789.1 304.59c22-91.8 43-179.56 64-267.33l5.61-1.4 136.78 239.3 136.34-238.81 5.79.23c21.05 87.83 42.1 175.66 64.25 268l197.78-190.11 5.87 2.32c-4.65 89.51-9.29 179-14.24 274.3l243.31-126.5 5.59 3-91.32 260.22L1818 474.53l4.37 4.62-160.83 223.91 273 24.81c1 1.93 1.92 3.87 2.89 5.8l-217.08 168.94L1976 1004c.33 1.88.65 3.76 1 5.64l-256.74 101.66 216.6 168.41-.89 6.09-274.11 25.2c54.79 76.49 107.32 149.84 159.86 223.18q-1.4 2.65-2.77 5.31l-270-53.31 90.92 259.51-4.32 4-244.09-126.74c4.83 94.12 9.45 184.1 14.06 274.08l-5.69 2.64-198-190.37-64.16 268.37-5.4.5-136.76-239.28L859 1977.66l-5.66-.12-64.23-268.19L590.79 1900l-5.41-2.07a2185317 2185317 0 0 0 14.3-275.1l-244.3 126.86-4.51-3.31c29.85-85.21 59.71-170.41 91.13-260.1l-270 53.12c-.94-1.71-1.89-3.47-2.84-5.22Z" style="fill:#e9332d"/><path d="m702 943.63-78.29 8.16-24.26-233.11 57.66-6c18.88-2 42.12-2.62 58.43 8.05 15.18 10.07 24.1 27.87 26 45.69 2.15 20.62-3.2 37.08-20.63 49.49 12.48 1.17 21.9 3.37 31.93 11.51 12.35 10 19.69 26.21 21.33 41.94C779 915.83 744 939.26 702 943.63Zm-40-194L648.74 751l6.26 60.11 12.93-1.35C688.21 807.65 702.4 798 700.1 776s-17.81-28.5-38.1-26.39Zm17.56 93.91-21 2.19 6.74 64.65 19.57-2c22.37-2.33 44.89-10 42.05-37.24-2.65-25.92-25.67-29.88-47.34-27.62ZM816.13 696.1l129-13.44 4.11 39.49-83.53 8.71 5.4 51.72 73.39-7.65 4.11 39.49-73.39 7.65 6.52 62.93 83.53-8.71 4.11 39.5-129 13.44ZM1096.13 908.21c-35.3 3.68-62.07-9.08-84.66-36l26.4-31.37c11.79 18.2 30.16 28.3 52.17 26 19.58-2 34.73-16 32.58-36.6-5-47.88-105-14.49-112.86-89.63-4.29-41.24 26.14-71.26 65.63-75.38a102.79 102.79 0 0 1 70.85 18.77l-20.53 33.58c-11.37-10.82-23.63-16.61-39.71-14.94-15 1.57-31.52 12.83-29.77 29.6 4.12 39.49 104.48 9.25 113 90.68 4.92 47.48-26.97 80.48-73.1 85.29ZM1289.94 686.64l20.18 193.61-45.43 4.75-20.18-193.62-52.07 5.43-4.12-39.49 149.93-15.63 4.12 39.49ZM550.7 1317c-35.3 3.68-62.06-9.07-84.66-36l26.41-31.37c11.79 18.2 30.15 28.3 52.17 26 19.57-2 34.72-16 32.57-36.61-5-47.88-105-14.49-112.85-89.63-4.3-41.24 26.13-71.26 65.62-75.37a102.77 102.77 0 0 1 70.85 18.75l-20.52 33.59c-11.38-10.83-23.64-16.62-39.72-14.94-15 1.56-31.51 12.82-29.77 29.6 4.12 39.49 104.48 9.25 113 90.68 4.92 47.45-26.97 80.44-73.1 85.3ZM664.56 1063.79l129-13.44 4.11 39.49-83.53 8.71 5.4 51.72 73.39-7.65 4.11 39.5-73.39 7.65 6.56 62.9 83.53-8.7 4.11 39.49-129 13.44ZM879.33 1277.05 855 1043.94l45.43-4.73 20.18 193.61 71.65-7.47 4.12 39.5ZM1045.33 1259.75 1021 1026.64l45.44-4.74 20.18 193.62 71.64-7.47 4.12 39.5ZM1187 1009.34l129-13.44 4.12 39.49-83.53 8.71 5.39 51.72 73.4-7.65 4.11 39.49-73.39 7.65 6.56 62.91 83.52-8.71 4.12 39.5-129 13.44ZM1515.73 1210.72l-72.67-87.11-5.59.59 9.76 93.66-45.43 4.74-24.3-233.11 67.45-7c20.27-2.12 43.74-.68 61.16 10.58 16.69 11 26.49 30.45 28.53 50 1.49 14.33-1.65 31.61-8.84 44-8.36 14.65-21.68 22.4-37.43 27.22l83.62 90.56Zm-75.31-190.34-13.63 1.42 7.33 70.25 12.93-1.35c23.41-2.44 43.86-13 41-40s-24.21-32.76-47.63-30.32Z" class="cls-2"/></svg>