<svg xmlns="http://www.w3.org/2000/svg" xml:space="preserve" id="Layer_1" x="0" y="0" style="enable-background:new 0 0 2000 2000" version="1.1" viewBox="0 0 2000 2000"><style>.st0,.st1{fill:#d8b98b;stroke:#d8b98b;stroke-width:.82;stroke-miterlimit:10}.st1{stroke-width:4.27;stroke-miterlimit:50}</style><circle cx="1000.6" cy="1000.1" r="960.7"/><path d="M853.8 741c-51.3 4.8-96.8-31.4-101.7-83-4.9-51.4 32.8-97.1 84.3-101.9.2 0 .4 0 .6-.1 50.8-4.8 96.4 33 101.2 83.8 4.8 51.3-33.3 96.4-84.4 101.2zm-14.7-159.9c-39 3.7-63.5 36.7-59.9 75 3.4 36.4 36.1 63 72.2 59.6 37.2-3.5 63.2-36.4 59.8-73.3-3.5-37.2-34.4-64.8-72.1-61.3zM1142.2 712.3l-133-115.3 11.7 124.9-27 2.5-17.2-182.7 7.2-.7 134.8 116.8-11.7-124.1 27-2.5 16.9 180.2-8.7.9z" class="st0"/><path d="M316.9 1330.4c-13.5 1.3-16.5 8.3-16.7 19.5l-4.2 1-28.9-149.7 4.2-1.6c42.6 105.2 92.8 140 139.9 135.6 48.3-4.5 78.5-38.2 73.8-88.4-3.3-34.9-29.6-65.7-64.1-97.7l-19.6-18.5c-31.8-29.7-51.9-59.9-55.4-97.2C339.5 966.1 391 910 455.2 904c27.5-2.6 60.4 6 75.7 4.6 11.6-1.1 16-7.1 14.8-19.9l4.2-1 34.3 135.6-4.2 1.6c-38.8-91.4-86.5-119-124.4-115.5-42.8 4-67.6 36-63.9 75.1 3.3 34.9 25.8 64.8 55.6 92.9l21 20.2c33.1 30.8 62.5 61.4 66.6 104.2 7.2 76.5-54.2 132.2-122.1 138.6-39 3.8-75.1-11.9-95.9-10zM929.9 1285.8c-11.6 1.1-27.7.8-43.6 2.2-17.1 1.6-37.8 5.4-49.4 6.5l-17.1 1.6-.5-5.5 4.9-.5c20.8-2.6 33.9-20.5 32.3-43.8l-4.7-69.9-170.1 16-18.2 30.1c-11.8 19-18.8 36.9-17.3 52.2 1.8 19 15.2 30.7 36.6 28.6l4.3-.4.5 5.5-12.8 1.2c-14.7 1.4-36.3 1.6-49.7 2.8-11.6 1.1-35.9 5.2-48.2 6.4l-14.1 1.3-.5-5.5 2.4-.2c31.2-2.9 58.6-39.4 92.3-94.5l176.5-288.8-5.9-56.2c11.6-1.1 24-1 35-2 11.6-1.1 19.5-3.1 29.9-4l26.1 369.7c1.9 27 10.7 41.6 32.7 39.5l1.2-.1.5 5.5-23.1 2.3zm-95.4-344.6L686 1185.9l165.2-15.5-16.7-229.2zM1247.3 1274.5c3.3-10.8-1.1-18.4-14-17.2l-120.5 11.3c-15.3 1.4-27.6 2-44.7 3.6s-34.2 3.8-48.9 5.2l-22.6 2.1-.5-5.5 6.1-.6c25.7-2.4 37-20.1 45.4-49.3l94.5-334.7c2.8-9.5 3.4-16.4 2.9-21.3-1-10.4-7.7-16.6-23-15.1l-8.6.8-.5-5.5 26.3-2.5c14.7-1.4 30.2-1 47.3-2.6 17.7-1.7 33.5-5 48.2-6.4l23.2-2.2.5 5.5-5.5.5c-25.7 2.4-37.7 19.6-46 48.8l-105.6 374 67.9-6.4c25.7-2.4 38.7-8.6 61.5-35.4 20-23.5 54.8-66.9 98.3-122.8l3.9 2.7-81.2 173.7-4.4-.7zM1623.5 1239.2c3.3-10.8-1.1-18.4-14-17.2l-143.2 13.4c-15.3 1.4-27.6 2-44.7 3.6s-34.2 3.8-49.5 5.3l-22 2.1-.5-5.5 5.5-.5c25.7-2.4 37.7-19.6 46-49.4l94.5-334.7c2.8-9.5 3.4-15.8 2.9-21.3-1-10.4-7.7-16.5-23-15.1l-8.6.8-.5-5.5 26.3-2.5c14.7-1.4 30-2.2 47.8-3.9 17.1-1.6 36.6-4.1 51.9-5.5l112.5-10.6c18.4-1.7 25.2-7.9 25.8-20.9l4.3-.4 11.6 149.5-4.2 1c-18.7-48.2-28.5-73.2-40-97.5-7.8-17.8-15.8-23.8-37.8-21.7l-91.8 8.6-57.4 203.5 59.3-5.6c36.1-3.4 59.3-38.3 80.8-92.8l5.1 1.4-51.9 183.2-5.1-1.4c3.7-19.5 6.5-36.4 5.1-50.5-2.1-22.6-12.6-35.8-35.3-33.7l-60 5.6-58.1 209.1 91.2-8.6c26.3-2.5 37.3-9.7 60.3-34.7 20.6-23.5 55.3-62 98.6-113.6l4 2.7-81.5 163.8-4.4-.5z" class="st1"/></svg>